<svg width="2272" height="336" viewBox="0 0 2272 336" fill="none" xmlns="http://www.w3.org/2000/svg">
<path d="M47.9097 16.1816C49.4677 16.1816 54.3213 16.421 62.4707 16.8998C70.74 17.3786 86.9189 17.6179 111.008 17.6179C135.096 17.6179 149.657 17.2589 154.691 16.5407C156.009 16.5407 156.908 16.8998 157.387 17.6179C157.866 18.3361 158.106 18.9944 158.106 19.5929L159.185 34.1357C159.185 37.128 159.005 39.0431 158.645 39.881C158.286 40.5992 157.507 40.9582 156.309 40.9582C155.35 40.9582 154.511 39.7613 153.792 37.3674C153.193 34.8539 152.533 32.9388 151.814 31.6221C150.017 28.5101 144.804 26.9541 136.175 26.9541H112.805C109.929 26.9541 108.131 27.5525 107.412 28.7495C106.813 29.8267 106.513 33.0584 106.513 38.4447V47.2422L105.974 112.954L105.794 124.624C105.794 129.771 106.573 133.122 108.131 134.678C109.809 136.235 111.607 137.431 113.524 138.269C115.442 138.987 117.06 139.406 118.378 139.526C121.734 139.765 123.411 140.843 123.411 142.758C123.411 144.074 123.112 144.912 122.513 145.271C121.913 145.63 120.775 145.81 119.097 145.81L99.143 144.374L80.8069 145.63C76.3726 145.63 74.1555 144.673 74.1555 142.758C74.1555 141.561 74.515 140.783 75.2341 140.424C75.9532 139.945 77.3314 139.586 79.3687 139.347C81.5259 138.987 82.9041 138.748 83.5033 138.628C87.578 137.671 89.8551 135.277 90.3344 131.447C91.5329 120.914 92.1321 98.2916 92.1321 63.5804L91.9523 31.4426C91.9523 29.1684 91.2932 27.7919 89.9749 27.3132C88.6566 26.7147 84.2823 26.4154 76.852 26.4154C69.4217 26.4154 63.5493 26.6548 59.2349 27.1336C55.0404 27.6124 52.5836 28.0912 51.8645 28.5699C51.1455 28.929 50.2467 29.7669 49.1681 31.0835C48.2093 32.4001 47.3704 33.9562 46.6513 35.7516C46.0521 37.4273 45.6327 38.8038 45.393 39.881C45.0334 42.634 43.8949 44.0104 41.9774 44.0104C40.6591 44.0104 40 42.993 40 40.9582C40 36.1705 40.2996 31.8615 40.8988 28.0313C41.498 24.0814 41.7977 21.8072 41.7977 21.2088C41.9175 20.6103 41.9774 20.2512 41.9774 20.1315C42.0973 19.8921 42.1572 19.5929 42.1572 19.2338C42.277 18.755 42.3969 18.4558 42.5167 18.3361C42.6366 18.0967 42.7564 17.8573 42.8763 17.6179C43.1159 17.2589 43.3556 17.0195 43.5953 16.8998C43.835 16.7801 44.1346 16.6604 44.4941 16.5407C45.2132 16.3013 46.3517 16.1816 47.9097 16.1816Z" fill="#EFE8E3"/>
<path d="M186.532 144.194L173.768 145.092C170.772 145.092 169.214 144.912 169.094 144.553C168.975 144.194 168.915 143.775 168.915 143.296C168.915 142.1 169.634 141.321 171.072 140.962C174.547 140.005 176.764 138.509 177.723 136.474C178.802 134.319 179.341 131.207 179.341 127.138L180.06 65.9144V57.1169C180.06 40.8385 179.701 30.904 178.981 27.3132C178.262 23.7223 176.105 21.9269 172.51 21.9269H170.173L169.454 21.7474C167.417 21.7474 166.398 21.2088 166.398 20.1315C166.398 19.0543 166.997 18.2164 168.196 17.6179C169.514 16.8998 171.311 16.2415 173.589 15.643C175.985 15.0445 179.341 13.7878 183.655 11.8726C187.97 9.95755 190.666 9 191.745 9C193.303 9 194.082 10.3765 194.082 13.1294C194.082 13.7279 193.842 15.1642 193.363 17.4384C193.003 19.7126 192.764 24.1413 192.644 30.7244C192.644 37.1879 192.524 44.19 192.284 51.7307C192.164 59.1517 192.044 64.1788 191.925 66.8121C191.685 71.8392 191.565 75.3702 191.565 77.405C191.565 79.4398 192.044 80.4572 193.003 80.4572C193.243 80.4572 194.441 79.38 196.599 77.2255C198.876 74.9513 201.932 72.737 205.767 70.5825C209.721 68.3083 213.916 67.1712 218.35 67.1712C228.058 67.1712 235.608 70.0438 241.001 75.7891C246.394 81.5344 249.09 90.4516 249.09 102.541V128.574C249.09 131.806 249.689 134.319 250.888 136.115C252.086 137.91 253.464 138.868 255.022 138.987C261.494 139.586 264.73 140.843 264.73 142.758C264.73 144.673 262.872 145.63 259.157 145.63L244.057 144.733L230.215 145.271C227.458 145.271 226.08 144.673 226.08 143.476C226.08 141.322 227.698 140.244 230.934 140.244C232.132 140.244 233.211 139.586 234.17 138.269C235.248 136.953 235.787 134.918 235.787 132.165L235.967 127.497L236.147 102.361C236.147 95.0598 233.93 88.7759 229.496 83.5094C225.061 78.1232 219.908 75.4301 214.036 75.4301C208.283 75.4301 202.411 77.7641 196.419 82.4322C194.262 84.1079 192.883 86.8608 192.284 90.691C191.685 94.4015 191.385 102.72 191.385 115.647V119.777C191.385 125.163 191.805 129.532 192.644 132.883C193.962 137.551 197.258 140.065 202.531 140.424C204.209 140.543 205.467 140.783 206.306 141.142C207.265 141.381 207.744 141.98 207.744 142.937C207.744 144.374 207.085 145.092 205.767 145.092L201.093 144.912C197.977 144.793 194.801 144.673 191.565 144.553C188.449 144.314 186.771 144.194 186.532 144.194Z" fill="#EFE8E3"/>
<path d="M296.892 145.81L284.129 146.169C279.335 146.169 276.938 145.391 276.938 143.835C276.938 142.159 277.837 141.022 279.635 140.424C279.755 140.424 279.994 140.364 280.354 140.244C283.11 139.287 284.908 137.85 285.747 135.935C286.586 134.02 287.005 124.744 287.005 108.106V92.3069C287.005 88.8358 286.586 86.0828 285.747 84.048C284.908 82.0132 284.129 80.7564 283.41 80.2777C282.691 79.7989 281.433 79.4398 279.635 79.2004C277.957 78.8413 276.699 78.5421 275.86 78.3027C275.141 77.9436 274.781 77.4649 274.781 76.8664C274.781 76.1482 274.901 75.6096 275.141 75.2505C275.5 74.8914 276.1 74.5324 276.938 74.1733C277.897 73.6945 278.856 73.2756 279.815 72.9165C283.17 71.9589 285.927 71.0014 288.084 70.0438C290.241 69.0863 291.859 68.3681 292.938 67.8894C294.136 67.4106 294.915 67.0515 295.275 66.8121C296.113 66.453 297.132 66.2735 298.331 66.2735C300.128 66.2735 301.027 67.4106 301.027 69.6848L299.948 78.3027V127.497C299.948 131.088 300.488 133.9 301.566 135.935C302.765 137.97 303.963 139.227 305.162 139.706C306.48 140.184 307.978 140.484 309.656 140.603C311.334 140.723 312.412 140.783 312.892 140.783C314.569 141.022 315.408 141.86 315.408 143.296C315.408 145.331 314.39 146.349 312.352 146.349L309.656 146.169L296.892 145.81ZM293.836 49.3967C291.44 49.3967 289.342 48.1399 287.545 45.6263C285.867 43.1127 285.028 41.0779 285.028 39.5219C285.028 37.8462 286.047 35.7516 288.084 33.238C290.241 30.6047 292.219 29.2881 294.016 29.2881C295.934 29.2881 297.791 30.5449 299.589 33.0585C301.387 35.4523 302.285 37.6068 302.285 39.5219C302.285 41.437 301.147 43.5915 298.87 45.9854C296.593 48.2596 294.915 49.3967 293.836 49.3967Z" fill="#EFE8E3"/>
<path d="M378.359 73.096L379.078 83.8685C379.078 85.9033 378.838 87.2797 378.359 87.9979C377.879 88.7161 377.16 89.0752 376.201 89.0752C375.363 89.0752 374.404 88.2373 373.325 86.5616C372.366 84.7662 371.228 82.8511 369.91 80.8163C368.711 78.7815 366.674 76.9262 363.798 75.2505C361.041 73.4551 357.865 72.5574 354.27 72.5574C350.675 72.5574 347.739 73.4551 345.462 75.2505C343.184 76.9262 342.046 78.7815 342.046 80.8163C342.046 82.8511 342.226 84.5268 342.585 85.8434C342.945 87.0404 343.544 88.1176 344.383 89.0752C345.342 90.0327 346.121 90.8706 346.72 91.5887C347.439 92.1872 348.577 92.8455 350.135 93.5637C351.693 94.2818 352.832 94.8205 353.551 95.1795C354.39 95.4189 355.708 95.8977 357.506 96.6159C368.412 100.446 375.423 104.216 378.538 107.927C381.654 111.518 383.212 116.724 383.212 123.547C383.212 130.37 380.037 136.653 373.685 142.399C369.37 146.109 363.438 147.965 355.888 147.965C350.735 147.965 344.982 146.708 338.63 144.194C336.833 143.476 335.754 143.117 335.395 143.117C335.155 142.997 334.676 142.818 333.957 142.578C333.357 142.339 332.878 142.219 332.518 142.219C332.279 142.1 331.919 141.92 331.44 141.681C330.96 141.441 330.601 141.262 330.361 141.142C330.241 140.903 330.062 140.603 329.822 140.244C329.462 139.646 329.283 138.688 329.283 137.372V121.752C329.283 120.435 329.522 119.358 330.002 118.52C330.601 117.562 331.38 117.084 332.339 117.084C333.297 117.084 333.957 117.383 334.316 117.981C334.795 118.46 335.215 119.537 335.574 121.213C335.934 122.889 336.293 124.086 336.653 124.804C341.087 135.816 347.319 141.322 355.349 141.322C359.064 141.322 362.599 140.364 365.955 138.449C369.31 136.414 370.988 133.302 370.988 129.113C370.988 124.804 369.61 121.333 366.854 118.699C364.097 116.066 360.742 114.031 356.787 112.595C352.832 111.039 348.877 109.483 344.922 107.927C340.967 106.251 337.612 103.857 334.855 100.745C332.099 97.5136 330.721 93.5038 330.721 88.7161C330.721 82.0132 333.417 76.627 338.81 72.5574C344.203 68.4878 350.135 66.453 356.607 66.453C363.079 66.453 367.992 66.9916 371.348 68.0689C374.703 69.0264 376.681 69.9241 377.28 70.762C377.999 71.5999 378.359 72.3779 378.359 73.096Z" fill="#EFE8E3"/>
<path d="M456.821 145.81L444.057 146.169C439.264 146.169 436.867 145.391 436.867 143.835C436.867 142.159 437.766 141.022 439.563 140.424C439.683 140.424 439.923 140.364 440.282 140.244C443.039 139.287 444.836 137.85 445.675 135.935C446.514 134.02 446.934 124.744 446.934 108.106V92.3069C446.934 88.8358 446.514 86.0828 445.675 84.048C444.836 82.0132 444.058 80.7564 443.338 80.2777C442.619 79.7989 441.361 79.4398 439.563 79.2004C437.886 78.8413 436.627 78.5421 435.788 78.3027C435.069 77.9436 434.71 77.4649 434.71 76.8664C434.71 76.1482 434.829 75.6096 435.069 75.2505C435.429 74.8914 436.028 74.5324 436.867 74.1733C437.826 73.6945 438.784 73.2756 439.743 72.9165C443.099 71.9589 445.855 71.0014 448.012 70.0438C450.17 69.0863 451.787 68.3681 452.866 67.8894C454.064 67.4106 454.843 67.0515 455.203 66.8121C456.042 66.453 457.061 66.2735 458.259 66.2735C460.057 66.2735 460.955 67.4106 460.955 69.6848L459.877 78.3027V127.497C459.877 131.088 460.416 133.9 461.495 135.935C462.693 137.97 463.892 139.227 465.09 139.706C466.408 140.184 467.906 140.484 469.584 140.603C471.262 140.723 472.341 140.783 472.82 140.783C474.498 141.022 475.337 141.86 475.337 143.296C475.337 145.331 474.318 146.349 472.281 146.349L469.584 146.169L456.821 145.81ZM453.765 49.3967C451.368 49.3967 449.271 48.1399 447.473 45.6263C445.795 43.1127 444.956 41.0779 444.956 39.5219C444.956 37.8462 445.975 35.7516 448.012 33.238C450.17 30.6047 452.147 29.2881 453.945 29.2881C455.862 29.2881 457.72 30.5449 459.517 33.0585C461.315 35.4523 462.214 37.6068 462.214 39.5219C462.214 41.437 461.075 43.5915 458.798 45.9854C456.521 48.2596 454.843 49.3967 453.765 49.3967Z" fill="#EFE8E3"/>
<path d="M538.287 73.096L539.006 83.8685C539.006 85.9033 538.766 87.2797 538.287 87.9979C537.808 88.7161 537.089 89.0752 536.13 89.0752C535.291 89.0752 534.332 88.2373 533.254 86.5616C532.295 84.7662 531.156 82.8511 529.838 80.8163C528.64 78.7815 526.602 76.9262 523.726 75.2505C520.97 73.4551 517.794 72.5574 514.198 72.5574C510.603 72.5574 507.667 73.4551 505.39 75.2505C503.113 76.9262 501.974 78.7815 501.974 80.8163C501.974 82.8511 502.154 84.5268 502.514 85.8434C502.873 87.0404 503.472 88.1176 504.311 89.0752C505.27 90.0327 506.049 90.8706 506.648 91.5887C507.367 92.1872 508.506 92.8455 510.064 93.5637C511.622 94.2818 512.76 94.8205 513.479 95.1795C514.318 95.4189 515.637 95.8977 517.434 96.6159C528.34 100.446 535.351 104.216 538.467 107.927C541.583 111.518 543.141 116.724 543.141 123.547C543.141 130.37 539.965 136.653 533.613 142.399C529.299 146.109 523.367 147.965 515.816 147.965C510.663 147.965 504.911 146.708 498.559 144.194C496.761 143.476 495.683 143.117 495.323 143.117C495.083 142.997 494.604 142.818 493.885 142.578C493.286 142.339 492.806 142.219 492.447 142.219C492.207 142.1 491.848 141.92 491.368 141.681C490.889 141.441 490.529 141.262 490.29 141.142C490.17 140.903 489.99 140.603 489.75 140.244C489.391 139.646 489.211 138.688 489.211 137.372V121.752C489.211 120.435 489.451 119.358 489.93 118.52C490.529 117.562 491.308 117.084 492.267 117.084C493.226 117.084 493.885 117.383 494.244 117.981C494.724 118.46 495.143 119.537 495.503 121.213C495.862 122.889 496.222 124.086 496.581 124.804C501.016 135.816 507.248 141.322 515.277 141.322C518.992 141.322 522.528 140.364 525.883 138.449C529.239 136.414 530.917 133.302 530.917 129.113C530.917 124.804 529.538 121.333 526.782 118.699C524.026 116.066 520.67 114.031 516.715 112.595C512.76 111.039 508.805 109.483 504.851 107.927C500.896 106.251 497.54 103.857 494.784 100.745C492.027 97.5136 490.649 93.5038 490.649 88.7161C490.649 82.0132 493.346 76.627 498.739 72.5574C504.132 68.4878 510.064 66.453 516.535 66.453C523.007 66.453 527.921 66.9916 531.276 68.0689C534.632 69.0264 536.609 69.9241 537.208 70.762C537.928 71.5999 538.287 72.3779 538.287 73.096Z" fill="#EFE8E3"/>
<path d="M624.839 179.205L617.109 179.384C614.832 179.384 613.693 178.606 613.693 177.05C613.693 176.691 615.012 174.836 617.648 171.484C620.405 168.133 623.161 164.003 625.917 159.096C628.674 154.189 630.052 149.82 630.052 145.99C630.052 142.279 626.636 133.003 619.805 118.161C612.974 103.319 607.042 91.1698 602.008 81.714C600.69 79.3201 599.312 77.4649 597.874 76.1482C596.556 74.8316 595.477 74.1134 594.638 73.9937C592.721 73.7543 591.762 72.8566 591.762 71.3006C591.762 69.7446 592.96 68.9666 595.357 68.9666L614.592 69.3257L624.839 68.9666C625.678 68.9666 626.397 69.206 626.996 69.6848C627.715 70.0438 628.075 70.4628 628.075 70.9415C628.075 73.096 626.636 74.1733 623.76 74.1733H621.064C619.146 74.1733 618.187 75.6695 618.187 78.6618C618.187 82.2526 621.363 90.8706 627.715 104.516C628.674 106.55 630.112 109.782 632.029 114.211C635.625 122.35 637.782 126.42 638.501 126.42C639.22 126.42 641.976 119.537 646.77 105.772C651.684 92.0077 654.141 83.8086 654.141 81.1754C654.141 78.5421 653.541 76.6868 652.343 75.6096C651.264 74.5324 650.006 73.9937 648.568 73.9937C644.853 74.2331 642.995 73.2157 642.995 70.9415C642.995 69.5052 644.134 68.7871 646.411 68.7871L659.354 68.9666L670.499 68.7871C673.016 68.7871 674.274 69.5651 674.274 71.1211C674.274 72.318 673.196 73.2157 671.039 73.8142C669.001 74.293 667.623 75.0111 666.904 75.9687C664.986 78.7216 661.751 86.2623 657.197 98.5908L641.197 141.142C639.879 144.613 638.561 148.144 637.243 151.735C635.924 155.445 634.846 158.438 634.007 160.712C633.168 162.986 632.329 165.26 631.49 167.534C630.651 169.809 629.992 171.544 629.513 172.741C629.033 174.058 628.554 175.255 628.075 176.332C627.116 178.247 626.217 179.205 625.378 179.205H624.839Z" fill="#EFE8E3"/>
<path d="M721.461 148.324C709.237 148.324 699.47 144.434 692.16 136.653C684.969 128.754 681.374 119.358 681.374 108.466C681.374 97.5734 685.089 88.0578 692.519 79.9186C700.069 71.7794 709.956 67.7098 722.181 67.7098C734.524 67.7098 744.831 71.2408 753.1 78.3027C761.489 85.3646 765.684 95.1795 765.684 107.747C765.684 120.315 761.37 130.25 752.741 137.551C744.232 144.733 733.805 148.324 721.461 148.324ZM719.484 72.5574C713.252 72.5574 707.679 75.0111 702.766 79.9186C697.972 84.826 695.575 92.9054 695.575 104.157C695.575 115.408 698.871 124.684 705.462 131.985C712.054 139.287 719.125 142.937 726.675 142.937C734.345 142.937 740.517 140.364 745.191 135.217C749.865 129.951 752.201 122.29 752.201 112.236C752.201 102.182 749.325 93.0849 743.573 84.9457C737.82 76.6868 729.791 72.5574 719.484 72.5574Z" fill="#EFE8E3"/>
<path d="M789.57 117.084L789.75 84.7662C789.75 82.3723 789.091 80.4572 787.773 79.0209C786.574 77.5845 785.436 76.8664 784.357 76.8664H781.121C778.964 76.8664 777.885 76.0285 777.885 74.3528C777.885 72.6771 779.024 71.5999 781.301 71.1211C783.698 70.6423 786.574 70.4029 789.93 70.4029L800.176 69.5052C802.214 69.5052 803.412 69.9241 803.772 70.762C804.131 71.5999 804.311 73.6945 804.311 77.0459C804.311 80.3974 804.131 85.0056 803.772 90.8706C803.532 96.6159 803.412 103.019 803.412 110.081C803.412 120.614 805.45 128.095 809.524 132.524C813.599 136.833 818.213 138.987 823.366 138.987C831.036 138.987 836.609 137.372 840.084 134.14C843.56 130.908 845.298 125.223 845.298 117.084L844.938 92.3069C844.938 86.3222 844.459 82.3125 843.5 80.2777C842.541 78.1232 840.504 76.9262 837.388 76.6868C834.272 76.3278 832.714 75.4899 832.714 74.1733C832.714 71.4203 837.987 70.0438 848.534 70.0438L855.005 69.1461C856.803 69.1461 857.941 69.4454 858.421 70.0438C859.02 70.6423 859.319 71.54 859.319 72.7369C859.319 73.8142 859.26 75.2505 859.14 77.0459C859.14 78.7216 859.08 80.9958 858.96 83.8685C858.96 86.7411 858.9 89.9729 858.78 93.5637C858.54 100.745 858.421 108.765 858.421 117.622C858.421 126.479 858.78 132.225 859.499 134.858C860.218 137.491 861.537 138.808 863.454 138.808L868.128 138.628C871.004 138.628 872.442 139.347 872.442 140.783C872.442 142.219 872.023 143.117 871.184 143.476C870.345 143.835 868.727 144.015 866.33 144.015C863.933 144.015 860.278 144.374 855.365 145.092C850.571 145.69 847.994 145.99 847.635 145.99C846.796 145.99 846.077 144.493 845.477 141.501C844.998 138.389 844.639 136.833 844.399 136.833C844.279 136.833 843.141 137.791 840.983 139.706C838.826 141.621 835.71 143.536 831.635 145.451C827.681 147.366 823.306 148.324 818.513 148.324C799.218 148.324 789.57 137.91 789.57 117.084Z" fill="#EFE8E3"/>
<path d="M885.596 79.9186L883.619 79.739C881.342 79.739 880.203 78.7815 880.203 76.8664C880.203 75.5498 880.982 74.5922 882.54 73.9937C884.218 73.2756 887.214 72.2582 891.528 70.9415C895.963 69.5052 899.438 68.2484 901.955 67.1712C904.472 65.9742 905.97 65.3758 906.449 65.3758C908.007 65.3758 908.786 66.5727 908.786 68.9666L908.606 73.8142C908.606 78.1232 908.726 80.5171 908.966 80.9958C909.325 81.3549 909.625 81.5344 909.865 81.5344C910.224 81.5344 911.183 80.3375 912.741 77.9436C914.299 75.5498 916.516 73.1559 919.392 70.762C922.268 68.2484 925.085 66.9916 927.841 66.9916C930.717 66.9916 933.654 68.009 936.65 70.0438C939.646 71.9589 941.144 73.9339 941.144 75.9687C941.144 77.8838 940.664 79.6792 939.706 81.3549C938.028 84.2276 936.47 85.6639 935.032 85.6639C934.073 85.6639 932.335 84.9457 929.819 83.5094C927.422 82.0731 924.605 81.3549 921.37 81.3549C918.134 81.3549 915.078 82.6715 912.201 85.3048C909.445 87.9381 908.067 90.3319 908.067 92.4864V111.159L908.247 126.779L908.426 130.01C908.426 132.524 909.265 134.678 910.943 136.474C912.621 138.269 914.179 139.287 915.617 139.526C917.175 139.765 918.493 139.945 919.572 140.065C920.65 140.184 921.489 140.304 922.089 140.424C922.688 140.424 923.347 140.543 924.066 140.783C925.384 141.022 926.043 141.92 926.043 143.476C926.043 144.912 925.324 145.63 923.886 145.63L908.606 144.733L889.911 145.63C887.753 145.63 886.555 145.391 886.315 144.912C886.076 144.434 885.956 143.955 885.956 143.476C885.956 141.92 886.735 140.903 888.293 140.424C891.409 139.706 893.266 138.209 893.865 135.935C894.584 133.541 894.944 128.514 894.944 120.854L894.764 91.9478L894.584 86.5616C894.584 85.245 894.405 84.1677 894.045 83.3299C893.086 81.0557 890.27 79.9186 885.596 79.9186Z" fill="#EFE8E3"/>
<path d="M999.908 156.223L1000.45 106.67V102.72C1000.45 92.7857 999.967 86.2025 999.009 82.9708C998.17 79.6193 995.833 77.9436 991.998 77.9436C989.961 77.9436 988.702 77.8239 988.223 77.5845C987.743 77.2255 987.504 76.7467 987.504 76.1482C987.504 75.4301 987.983 74.8914 988.942 74.5324C990.02 74.1733 992.118 73.515 995.234 72.5574C998.35 71.5999 1001.94 70.1635 1006.02 68.2484C1010.09 66.2136 1012.31 65.1962 1012.67 65.1962C1014.23 65.1962 1015.01 65.9742 1015.01 67.5303L1014.29 78.1232C1014.29 79.0807 1014.41 79.5595 1014.65 79.5595C1014.89 79.5595 1015.43 79.1406 1016.27 78.3027C1017.23 77.4649 1018.42 76.4475 1019.86 75.2505C1021.3 73.9339 1023.04 72.6771 1025.07 71.4802C1029.75 68.6075 1035.32 67.1712 1041.79 67.1712C1052.46 67.1712 1060.61 70.7022 1066.24 77.7641C1071.87 84.7063 1074.69 93.5038 1074.69 104.157C1074.69 114.69 1071.15 124.445 1064.08 133.422C1057.13 142.279 1047.79 146.708 1036.04 146.708C1030.53 146.708 1026.03 146.169 1022.56 145.092C1019.2 143.895 1016.87 142.758 1015.55 141.681C1014.23 140.484 1013.33 139.885 1012.85 139.885C1012.49 139.885 1012.31 140.364 1012.31 141.322V163.405C1012.31 165.679 1013.33 168.492 1015.37 171.843C1016.69 173.998 1018.66 175.255 1021.3 175.614C1024.06 175.973 1026.33 176.212 1028.13 176.332C1030.05 176.452 1031.01 177.23 1031.01 178.666C1031.01 180.222 1028.97 181 1024.9 181C1024.18 181 1022.26 180.88 1019.14 180.641C1016.03 180.402 1011.71 180.282 1006.2 180.282L994.874 180.82C992.238 180.82 990.56 180.701 989.841 180.461C989.122 180.222 988.762 179.624 988.762 178.666C988.762 177.828 989.301 177.17 990.38 176.691C991.578 176.212 992.897 175.793 994.335 175.434C995.773 175.075 997.031 173.579 998.11 170.946C999.308 168.432 999.908 164.722 999.908 159.814V156.223ZM1012.31 110.62L1012.49 119.597C1012.49 123.786 1013.39 127.377 1015.19 130.37C1016.99 133.362 1019.32 135.636 1022.2 137.192C1027.47 139.945 1033.04 141.322 1038.92 141.322C1046.71 141.322 1052.64 138.509 1056.71 132.883C1060.91 127.138 1063.01 119.836 1063.01 110.979C1063.01 102.122 1060.43 94.1023 1055.28 86.9207C1050.24 79.739 1043.41 76.1482 1034.78 76.1482C1028.67 76.1482 1023.22 78.0633 1018.42 81.8935C1015.91 83.8086 1014.23 86.4419 1013.39 89.7933C1012.67 93.0251 1012.31 99.9673 1012.31 110.62Z" fill="#EFE8E3"/>
<path d="M1126.59 148.503C1116.04 148.503 1107.05 145.271 1099.62 138.808C1092.31 132.344 1088.66 123.008 1088.66 110.8C1088.66 98.4711 1092.01 88.1775 1098.72 79.9186C1105.55 71.6597 1114.36 67.5303 1125.15 67.5303C1130.18 67.5303 1134.74 68.428 1138.81 70.2234C1143 72.0188 1146.24 74.2331 1148.52 76.8664C1150.79 79.38 1152.71 82.0731 1154.27 84.9457C1156.91 89.8532 1158.23 93.5637 1158.23 96.0772C1158.23 98.2317 1155.77 99.309 1150.85 99.309H1104.65C1103.7 99.309 1103.1 99.4287 1102.86 99.6681C1102.74 99.7878 1102.68 100.326 1102.68 101.284C1102.68 112.535 1105.67 121.392 1111.67 127.856C1117.78 134.319 1124.91 137.551 1133.06 137.551C1138.09 137.551 1143.18 136.235 1148.34 133.601C1153.61 130.848 1156.37 129.472 1156.61 129.472C1157.81 129.472 1158.4 130.01 1158.4 131.088C1158.4 132.524 1157.09 134.499 1154.45 137.013C1151.81 139.406 1149.3 141.381 1146.9 142.937C1141.15 146.648 1134.38 148.503 1126.59 148.503ZM1106.09 95L1137.73 93.9228C1139.41 93.9228 1140.43 93.8031 1140.79 93.5637C1141.27 93.2046 1141.51 92.6061 1141.51 91.7683C1141.51 88.1775 1139.83 83.9882 1136.47 79.2004C1133.12 74.4127 1128.44 72.0188 1122.45 72.0188C1116.46 72.0188 1111.85 74.4127 1108.61 79.2004C1105.37 83.8685 1103.76 88.2971 1103.76 92.4864C1103.76 94.1621 1104.54 95 1106.09 95Z" fill="#EFE8E3"/>
<path d="M1174.73 79.9186L1172.75 79.739C1170.48 79.739 1169.34 78.7815 1169.34 76.8664C1169.34 75.5498 1170.12 74.5922 1171.68 73.9937C1173.35 73.2756 1176.35 72.2582 1180.66 70.9415C1185.1 69.5052 1188.57 68.2484 1191.09 67.1712C1193.61 65.9742 1195.1 65.3758 1195.58 65.3758C1197.14 65.3758 1197.92 66.5727 1197.92 68.9666L1197.74 73.8142C1197.74 78.1232 1197.86 80.5171 1198.1 80.9958C1198.46 81.3549 1198.76 81.5344 1199 81.5344C1199.36 81.5344 1200.32 80.3375 1201.88 77.9436C1203.43 75.5498 1205.65 73.1559 1208.53 70.762C1211.4 68.2484 1214.22 66.9916 1216.98 66.9916C1219.85 66.9916 1222.79 68.009 1225.78 70.0438C1228.78 71.9589 1230.28 73.9339 1230.28 75.9687C1230.28 77.8838 1229.8 79.6792 1228.84 81.3549C1227.16 84.2276 1225.6 85.6639 1224.17 85.6639C1223.21 85.6639 1221.47 84.9457 1218.95 83.5094C1216.56 82.0731 1213.74 81.3549 1210.5 81.3549C1207.27 81.3549 1204.21 82.6715 1201.34 85.3048C1198.58 87.9381 1197.2 90.3319 1197.2 92.4864V111.159L1197.38 126.779L1197.56 130.01C1197.56 132.524 1198.4 134.678 1200.08 136.474C1201.76 138.269 1203.31 139.287 1204.75 139.526C1206.31 139.765 1207.63 139.945 1208.71 140.065C1209.79 140.184 1210.62 140.304 1211.22 140.424C1211.82 140.424 1212.48 140.543 1213.2 140.783C1214.52 141.022 1215.18 141.92 1215.18 143.476C1215.18 144.912 1214.46 145.63 1213.02 145.63L1197.74 144.733L1179.05 145.63C1176.89 145.63 1175.69 145.391 1175.45 144.912C1175.21 144.434 1175.09 143.955 1175.09 143.476C1175.09 141.92 1175.87 140.903 1177.43 140.424C1180.54 139.706 1182.4 138.209 1183 135.935C1183.72 133.541 1184.08 128.514 1184.08 120.854L1183.9 91.9478L1183.72 86.5616C1183.72 85.245 1183.54 84.1677 1183.18 83.3299C1182.22 81.0557 1179.41 79.9186 1174.73 79.9186Z" fill="#EFE8E3"/>
<path d="M1249.15 77.7641L1241.96 78.3027C1239.33 78.3027 1238.01 77.5247 1238.01 75.9687C1238.01 73.8142 1238.49 72.3779 1239.45 71.6597C1240.53 70.9415 1242.56 70.5825 1245.56 70.5825H1249.33C1250.77 70.5825 1251.67 70.2832 1252.03 69.6848C1252.39 68.9666 1252.57 67.8894 1252.57 66.453C1252.57 57.7154 1254.01 49.6959 1256.88 42.3946C1259.76 34.9736 1263.36 29.1086 1267.67 24.7996C1276.54 15.5832 1284.69 10.9749 1292.12 10.9749C1294.87 10.9749 1297.09 11.4537 1298.77 12.4113C1300.57 13.2491 1301.47 14.4461 1301.47 16.0021C1301.47 16.4809 1301.23 17.5581 1300.75 19.2338C1300.39 20.7898 1300.15 21.8072 1300.03 22.286C1299.91 22.7648 1299.79 23.1837 1299.67 23.5428C1299.55 23.7822 1299.43 24.0814 1299.31 24.4405C1299.19 24.7996 1299.07 25.0988 1298.95 25.3382C1298.83 25.4579 1298.65 25.6374 1298.41 25.8768C1298.29 26.1162 1298.11 26.2957 1297.87 26.4154C1297.51 26.6548 1297.03 26.7745 1296.43 26.7745C1295.83 26.7745 1295.23 26.3556 1294.64 25.5177C1292.84 23.2436 1289.6 22.1065 1284.93 22.1065C1280.37 22.1065 1276.78 23.3633 1274.14 25.8768C1271.63 28.3904 1269.71 31.7418 1268.39 35.9311C1265.87 44.0703 1264.61 53.0473 1264.61 62.8622V67.3507C1264.61 69.6249 1265.33 70.762 1266.77 70.762C1277.32 70.762 1283.73 69.9241 1286.01 68.2484C1286.85 67.7697 1287.5 67.5303 1287.98 67.5303C1288.46 67.5303 1288.7 68.1886 1288.7 69.5052C1288.7 70.7022 1287.86 72.7968 1286.19 75.7891C1285.47 76.8664 1283.97 77.405 1281.69 77.405L1267.67 77.5845C1265.75 77.5845 1264.79 78.183 1264.79 79.38V89.7933L1265.69 125.342C1265.69 131.686 1266.53 135.875 1268.21 137.91C1270.13 140.424 1273.06 141.681 1277.02 141.681C1279.06 141.681 1280.07 142.578 1280.07 144.374C1280.07 145.571 1279.41 146.169 1278.1 146.169L1260.12 145.271L1246.82 146.169C1245.02 146.169 1244.12 145.331 1244.12 143.656C1244.12 143.057 1244.84 142.459 1246.28 141.86C1247.84 141.262 1249.33 140.184 1250.77 138.628C1252.21 136.953 1252.93 135.097 1252.93 133.063C1252.93 131.028 1252.87 128.095 1252.75 124.265C1252.39 112.535 1252.21 97.9923 1252.21 80.6367C1252.21 79.3201 1251.97 78.5421 1251.49 78.3027C1251.13 77.9436 1250.35 77.7641 1249.15 77.7641Z" fill="#EFE8E3"/>
<path d="M1336.2 148.503C1325.65 148.503 1316.66 145.271 1309.23 138.808C1301.92 132.344 1298.27 123.008 1298.27 110.8C1298.27 98.4711 1301.62 88.1775 1308.33 79.9186C1315.16 71.6597 1323.97 67.5303 1334.76 67.5303C1339.79 67.5303 1344.35 68.428 1348.42 70.2234C1352.61 72.0188 1355.85 74.2331 1358.13 76.8664C1360.4 79.38 1362.32 82.0731 1363.88 84.9457C1366.52 89.8532 1367.83 93.5637 1367.83 96.0772C1367.83 98.2317 1365.38 99.309 1360.46 99.309H1314.26C1313.31 99.309 1312.71 99.4287 1312.47 99.6681C1312.35 99.7878 1312.29 100.326 1312.29 101.284C1312.29 112.535 1315.28 121.392 1321.28 127.856C1327.39 134.319 1334.52 137.551 1342.67 137.551C1347.7 137.551 1352.79 136.235 1357.95 133.601C1363.22 130.848 1365.98 129.472 1366.22 129.472C1367.42 129.472 1368.01 130.01 1368.01 131.088C1368.01 132.524 1366.7 134.499 1364.06 137.013C1361.42 139.406 1358.91 141.381 1356.51 142.937C1350.76 146.648 1343.99 148.503 1336.2 148.503ZM1315.7 95L1347.34 93.9228C1349.02 93.9228 1350.04 93.8031 1350.4 93.5637C1350.88 93.2046 1351.12 92.6061 1351.12 91.7683C1351.12 88.1775 1349.44 83.9882 1346.08 79.2004C1342.73 74.4127 1338.05 72.0188 1332.06 72.0188C1326.07 72.0188 1321.46 74.4127 1318.22 79.2004C1314.98 83.8685 1313.37 88.2971 1313.37 92.4864C1313.37 94.1621 1314.14 95 1315.7 95Z" fill="#EFE8E3"/>
<path d="M1419.22 148.862C1407.95 148.862 1398.9 145.451 1392.07 138.628C1385.36 131.806 1382 122.589 1382 110.979C1382 99.2491 1385.84 89.1948 1393.51 80.8163C1401.3 72.318 1411.37 68.0689 1423.71 68.0689C1427.9 68.0689 1432.4 68.6674 1437.19 69.8643C1442.11 71.0612 1444.62 72.4377 1444.74 73.9937C1444.98 76.8664 1445.1 80.3375 1445.1 84.4071C1445.1 88.357 1444.44 90.3319 1443.12 90.3319C1441.93 90.3319 1440.85 89.5539 1439.89 87.9979C1437.85 84.5268 1433.96 81.5344 1428.2 79.0209C1422.57 76.3876 1417.6 75.071 1413.28 75.071C1410.89 75.071 1408.55 75.9687 1406.27 77.7641C1404 79.5595 1402.14 81.5344 1400.7 83.6889C1397.22 88.7161 1395.49 95.8379 1395.49 105.054C1395.49 114.271 1398.42 122.35 1404.3 129.292C1410.29 136.115 1417.6 139.526 1426.23 139.526C1430.42 139.526 1434.32 138.748 1437.91 137.192C1441.51 135.636 1444.26 134.08 1446.18 132.524C1448.22 130.968 1449.48 130.19 1449.96 130.19C1451.27 130.19 1451.93 130.788 1451.93 131.985C1451.93 133.182 1450.67 135.038 1448.16 137.551C1445.64 139.945 1443.18 141.86 1440.79 143.296C1434.92 147.007 1427.72 148.862 1419.22 148.862Z" fill="#EFE8E3"/>
<path d="M1466.72 78.4823L1463.31 78.6618C1461.27 78.6618 1460.25 77.8239 1460.25 76.1482C1460.25 74.9513 1460.79 73.9339 1461.87 73.096C1466.42 70.1037 1470.98 65.6152 1475.53 59.6305C1477.45 56.8775 1478.95 54.9026 1480.02 53.7056C1481.22 52.389 1482.42 51.7307 1483.62 51.7307C1484.82 51.7307 1485.42 53.1072 1485.42 55.8601C1485.42 55.8601 1485.18 59.2714 1484.7 66.0939C1484.7 67.7697 1485 68.7871 1485.6 69.1461C1486.32 69.5052 1488.47 69.6848 1492.07 69.6848H1498.36C1503.75 69.6848 1507.05 69.3855 1508.25 68.7871C1510.4 67.7098 1511.72 67.1712 1512.2 67.1712C1513.4 67.1712 1514 67.8295 1514 69.1461C1514 70.1037 1513.22 72.0188 1511.66 74.8914C1510.11 77.6444 1508.97 79.0209 1508.25 79.0209C1502.85 79.0209 1499.08 78.9012 1496.92 78.6618C1494.77 78.4224 1493.33 78.3027 1492.61 78.3027C1491.89 78.183 1491.23 78.1232 1490.63 78.1232C1490.15 78.0035 1489.79 77.9436 1489.55 77.9436L1489.19 77.7641C1486.92 77.7641 1485.42 78.1232 1484.7 78.8413C1484.1 79.5595 1483.8 81.1754 1483.8 83.6889L1483.08 117.084C1483.08 124.864 1484.04 130.31 1485.96 133.422C1487.99 136.414 1492.19 137.91 1498.54 137.91C1501.06 137.91 1503.81 137.372 1506.81 136.294C1509.93 135.097 1511.6 134.499 1511.84 134.499C1513.04 134.499 1513.64 135.277 1513.64 136.833C1513.64 138.389 1511.54 140.484 1507.35 143.117C1503.27 145.63 1498.84 146.887 1494.05 146.887C1477.87 146.887 1469.78 139.885 1469.78 125.881V123.188L1470.5 81.3549C1470.5 80.158 1470.26 79.38 1469.78 79.0209C1469.3 78.6618 1468.28 78.4823 1466.72 78.4823Z" fill="#EFE8E3"/>
<path d="M1083.34 334.377C1078.67 333.416 1074.41 331.372 1070.57 328.247C1066.86 325.121 1065 321.515 1065 317.428C1065 313.341 1066.08 310.155 1068.24 307.871C1070.4 305.708 1072.55 304.085 1074.71 303.003C1076.87 301.921 1077.95 301.2 1077.95 300.839C1077.95 300.599 1077.65 300.238 1077.05 299.758C1076.45 299.277 1075.73 298.736 1074.89 298.135C1072.97 296.572 1072.01 293.988 1072.01 290.381C1072.01 286.655 1072.79 283.469 1074.35 280.825C1075.91 278.18 1077.47 276.197 1079.03 274.875C1080.59 273.552 1081.36 272.711 1081.36 272.35C1081.36 271.869 1080.71 271.088 1079.39 270.006C1078.19 268.924 1076.81 267.722 1075.25 266.4C1073.69 264.958 1072.25 262.674 1070.93 259.548C1069.74 256.303 1069.14 252.937 1069.14 249.451C1069.14 245.845 1069.56 242.659 1070.4 239.894C1071.35 237.009 1072.85 234.064 1074.89 231.059C1077.05 227.934 1080.29 225.409 1084.6 223.486C1089.04 221.563 1093.89 220.601 1099.17 220.601C1104.56 220.601 1108.94 221.202 1112.3 222.404C1115.65 223.606 1118.11 224.808 1119.67 226.01C1121.35 227.212 1122.55 227.813 1123.27 227.813C1123.99 227.813 1126.92 226.732 1132.08 224.568C1133.76 223.847 1135.02 222.224 1135.85 219.699C1136.69 217.175 1137.59 215.913 1138.55 215.913C1140.11 215.913 1140.89 216.394 1140.89 217.355C1140.89 220.24 1140.47 223.366 1139.63 226.732C1138.79 229.977 1137.77 232.562 1136.57 234.485C1135.37 236.288 1133.04 237.911 1129.56 239.353C1130.88 242.96 1131.54 245.965 1131.54 248.369C1131.54 256.062 1128.66 262.553 1122.91 267.842C1117.15 273.132 1110.14 275.776 1101.87 275.776C1098.75 275.776 1095.75 275.536 1092.87 275.055C1090.12 274.454 1088.44 274.153 1087.84 274.153C1087.36 274.153 1086.64 274.274 1085.68 274.514C1084.72 274.754 1083.52 275.596 1082.08 277.038C1080.65 278.481 1079.93 280.464 1079.93 282.989C1079.93 287.076 1081.78 289.66 1085.5 290.742C1089.22 291.824 1095.39 292.365 1104.02 292.365H1112.3C1129.68 292.365 1138.37 297.654 1138.37 308.232C1138.37 311.959 1137.95 314.783 1137.11 316.707C1134.84 322.597 1130.16 327.285 1123.09 330.771C1116.01 334.257 1107.8 336 1098.45 336C1093.05 336 1088.02 335.459 1083.34 334.377ZM1075.43 315.084C1075.43 320.373 1077.65 324.34 1082.08 326.984C1086.52 329.749 1092.21 331.132 1099.17 331.132C1106.12 331.132 1112.54 329.569 1118.41 326.444C1124.41 323.438 1127.4 319.532 1127.4 314.723C1127.4 310.396 1125.3 307.691 1121.11 306.609C1117.87 305.888 1113.32 305.527 1107.44 305.527H1105.82C1101.99 305.527 1097.31 305.107 1091.8 304.265L1083.7 303.003C1082.5 303.003 1080.83 304.205 1078.67 306.609C1076.51 309.013 1075.43 311.838 1075.43 315.084ZM1099.71 224.568C1094.67 224.568 1090.6 226.491 1087.48 230.338C1084.36 234.064 1082.8 239.474 1082.8 246.566C1082.8 253.658 1084.48 259.608 1087.84 264.417C1091.32 269.225 1095.69 271.629 1100.97 271.629C1106.24 271.629 1110.32 269.585 1113.2 265.498C1116.07 261.291 1117.51 256.002 1117.51 249.631C1117.51 243.26 1115.83 237.49 1112.48 232.321C1109.12 227.152 1104.86 224.568 1099.71 224.568Z" fill="#EFE8E3"/>
<path d="M1192.03 301.921C1179.81 301.921 1170.03 298.015 1162.72 290.201C1155.53 282.267 1151.93 272.831 1151.93 261.892C1151.93 250.953 1155.65 241.397 1163.08 233.223C1170.63 225.049 1180.52 220.962 1192.75 220.962C1205.1 220.962 1215.41 224.508 1223.69 231.6C1232.08 238.692 1236.27 248.549 1236.27 261.171C1236.27 273.793 1231.96 283.77 1223.33 291.103C1214.81 298.315 1204.38 301.921 1192.03 301.921ZM1190.06 225.83C1183.82 225.83 1178.25 228.294 1173.33 233.223C1168.54 238.151 1166.14 246.265 1166.14 257.565C1166.14 268.864 1169.44 278.18 1176.03 285.513C1182.62 292.846 1189.7 296.512 1197.25 296.512C1204.92 296.512 1211.1 293.927 1215.77 288.759C1220.45 283.469 1222.79 275.776 1222.79 265.679C1222.79 255.581 1219.91 246.446 1214.15 238.272C1208.4 229.977 1200.37 225.83 1190.06 225.83Z" fill="#EFE8E3"/>
<path d="M1258.75 264.056L1259.47 187.424C1259.47 184.659 1258.99 182.195 1258.03 180.031C1257.19 177.747 1256.23 176.365 1255.15 175.884C1254.08 175.403 1251.68 175.163 1247.96 175.163C1246.64 175.163 1245.98 174.742 1245.98 173.901C1245.98 173.059 1246.04 172.458 1246.16 172.097C1246.4 171.737 1246.82 171.436 1247.42 171.196C1248.02 170.835 1248.74 170.535 1249.58 170.294C1253.06 169.573 1256.65 168.311 1260.37 166.508C1266.24 163.743 1270.08 162.361 1271.88 162.361C1273.32 162.361 1274.04 163.503 1274.04 165.787C1274.04 166.267 1273.92 167.65 1273.68 169.934C1272.96 177.026 1272.6 184.779 1272.6 193.194V203.291L1272.24 227.273V281.005C1272.24 283.53 1272.42 285.633 1272.78 287.316C1273.26 288.879 1274.64 290.441 1276.91 292.004C1279.31 293.447 1282.61 294.168 1286.81 294.168C1287.4 294.168 1287.94 294.468 1288.42 295.069C1288.9 295.67 1289.14 296.271 1289.14 296.873C1289.14 298.555 1287.28 299.397 1283.57 299.397L1265.41 298.135C1262.29 298.135 1259.29 298.375 1256.41 298.856C1253.66 299.337 1251.8 299.577 1250.84 299.577C1250 299.577 1249.28 299.337 1248.68 298.856C1248.2 298.495 1247.96 298.015 1247.96 297.413C1247.96 296.692 1248.2 296.151 1248.68 295.791C1249.28 295.31 1250.18 294.949 1251.38 294.709C1254.97 293.747 1257.13 292.305 1257.85 290.381C1258.57 288.338 1258.93 285.573 1258.93 282.087L1258.75 277.399V264.056Z" fill="#EFE8E3"/>
<path d="M1361.71 299.217L1361.17 292.545C1361.17 290.502 1360.63 289.48 1359.55 289.48C1359.19 289.48 1358.29 290.081 1356.86 291.283C1355.54 292.485 1353.98 293.867 1352.18 295.43C1350.38 296.873 1347.74 298.195 1344.27 299.397C1340.91 300.599 1337.25 301.2 1333.3 301.2C1322.15 301.2 1313.46 297.534 1307.22 290.201C1300.99 282.748 1297.87 273.552 1297.87 262.613C1297.87 251.554 1301.71 241.637 1309.38 232.862C1317.17 224.087 1327.9 219.699 1341.57 219.699C1344.69 219.699 1348.76 220.601 1353.8 222.404C1358.95 224.087 1361.77 224.928 1362.25 224.928C1362.73 224.928 1362.97 222.765 1362.97 218.437L1363.33 195.177C1363.33 188.686 1362.97 184.118 1362.25 181.474C1361.65 178.829 1360.63 177.086 1359.19 176.245C1357.88 175.403 1356.08 174.982 1353.8 174.982H1351.82C1350.02 174.982 1348.94 174.922 1348.58 174.802C1348.22 174.682 1348.04 174.261 1348.04 173.54V173.36C1348.04 172.518 1348.64 171.917 1349.84 171.556C1351.04 171.076 1353.44 170.294 1357.04 169.212C1360.75 168.01 1363.63 166.928 1365.67 165.967C1367.83 165.005 1369.44 164.284 1370.52 163.803C1372.8 162.601 1374.42 162 1375.38 162C1376.82 162 1377.54 163.202 1377.54 165.606C1377.54 165.967 1377.12 171.076 1376.28 180.933C1375.56 190.79 1375.2 198.723 1375.2 204.734L1374.84 270.547C1374.84 278.721 1375.2 284.191 1375.92 286.955C1376.76 289.72 1378.5 291.523 1381.13 292.365C1381.49 292.485 1382.51 292.725 1384.19 293.086C1385.87 293.326 1387.07 293.687 1387.79 294.168C1388.51 294.528 1388.87 295.19 1388.87 296.151C1388.87 297.594 1384.25 298.676 1375.02 299.397C1373.1 299.517 1370.88 299.818 1368.37 300.298C1365.85 300.899 1364.29 301.2 1363.69 301.2C1362.37 301.2 1361.71 300.539 1361.71 299.217ZM1335.82 224.928C1328.02 224.928 1321.91 227.813 1317.47 233.583C1313.04 239.233 1310.82 246.506 1310.82 255.401C1310.82 264.296 1313.58 272.591 1319.09 280.284C1324.73 287.977 1331.92 291.824 1340.67 291.824C1346.07 291.824 1350.98 290.441 1355.42 287.677C1359.85 284.912 1362.07 281.546 1362.07 277.579L1362.25 246.746C1362.25 239.413 1360.57 234.785 1357.22 232.862C1348.34 227.573 1341.21 224.928 1335.82 224.928Z" fill="#EFE8E3"/>
<path d="M1435.74 302.102C1425.19 302.102 1416.2 298.856 1408.77 292.365C1401.45 285.874 1397.8 276.497 1397.8 264.236C1397.8 251.855 1401.15 241.517 1407.87 233.223C1414.7 224.928 1423.51 220.781 1434.3 220.781C1439.34 220.781 1443.9 221.683 1447.97 223.486C1452.17 225.289 1455.4 227.513 1457.68 230.158C1459.96 232.682 1461.88 235.387 1463.44 238.272C1466.07 243.2 1467.39 246.926 1467.39 249.451C1467.39 251.615 1464.94 252.696 1460.02 252.696H1413.8C1412.84 252.696 1412.24 252.817 1412 253.057C1411.88 253.177 1411.82 253.718 1411.82 254.68C1411.82 265.979 1414.82 274.875 1420.82 281.366C1426.93 287.857 1434.06 291.103 1442.22 291.103C1447.25 291.103 1452.35 289.78 1457.5 287.136C1462.78 284.371 1465.54 282.989 1465.78 282.989C1466.97 282.989 1467.57 283.53 1467.57 284.611C1467.57 286.054 1466.25 288.037 1463.62 290.562C1460.98 292.966 1458.46 294.949 1456.06 296.512C1450.31 300.238 1443.54 302.102 1435.74 302.102ZM1415.24 248.369L1446.89 247.287C1448.57 247.287 1449.59 247.167 1449.95 246.926C1450.43 246.566 1450.67 245.965 1450.67 245.123C1450.67 241.517 1448.99 237.31 1445.63 232.502C1442.28 227.693 1437.6 225.289 1431.61 225.289C1425.61 225.289 1421 227.693 1417.76 232.502C1414.52 237.19 1412.9 241.637 1412.9 245.845C1412.9 247.527 1413.68 248.369 1415.24 248.369Z" fill="#EFE8E3"/>
<path d="M1519.15 298.676L1506.03 297.954C1502.91 297.954 1498.77 298.075 1493.62 298.315L1485.88 298.676C1484.09 298.676 1483.19 298.135 1483.19 297.053C1483.19 295.971 1483.49 295.31 1484.09 295.069C1484.69 294.829 1485.4 294.649 1486.24 294.528C1487.2 294.408 1488.1 294.048 1488.94 293.447C1491.22 292.004 1492.48 287.677 1492.72 280.464C1492.96 273.132 1493.08 268.323 1493.08 266.039V240.075C1493.08 236.228 1492.36 233.644 1490.92 232.321C1489.6 230.999 1487.74 230.338 1485.34 230.338H1483.55C1481.27 230.338 1480.13 229.677 1480.13 228.354C1480.13 227.152 1481.39 226.371 1483.91 226.01C1486.54 225.65 1488.58 225.289 1490.02 224.928C1491.58 224.448 1493.56 223.726 1495.95 222.765C1498.47 221.683 1500.45 220.781 1501.89 220.06C1503.45 219.339 1504.47 218.978 1504.95 218.978H1505.31C1506.39 218.978 1506.92 219.699 1506.92 221.142L1506.57 228.895C1506.57 232.021 1506.8 233.583 1507.28 233.583C1507.76 233.583 1508.24 233.283 1508.72 232.682C1510.52 230.158 1512.92 227.994 1515.92 226.191C1521.31 222.825 1526.47 221.142 1531.38 221.142C1536.3 221.142 1540.67 221.923 1544.51 223.486C1548.35 224.928 1551.34 226.792 1553.5 229.076C1555.66 231.239 1557.46 233.764 1558.9 236.649C1561.29 241.457 1562.49 246.385 1562.49 251.434V253.237L1562.67 262.794V281.185C1562.67 285.753 1563.27 288.939 1564.47 290.742C1565.79 292.425 1568.85 293.627 1573.64 294.348C1576.04 294.709 1577.24 295.61 1577.24 297.053C1577.24 298.255 1576.04 298.856 1573.64 298.856L1558.9 297.954L1545.05 298.676C1542.65 298.676 1541.45 297.894 1541.45 296.332C1541.45 295.25 1542.17 294.528 1543.61 294.168L1545.95 293.627C1548.59 292.785 1549.91 288.759 1549.91 281.546V257.204C1549.91 247.948 1547.63 240.976 1543.07 236.288C1538.52 231.48 1533.36 229.076 1527.61 229.076C1521.85 229.076 1517.06 230.458 1513.22 233.223C1509.38 235.988 1507.04 238.572 1506.21 240.976C1505.37 243.38 1504.95 252.576 1504.95 268.564V275.416C1504.95 281.426 1505.55 285.874 1506.74 288.759C1508.06 291.644 1510.88 293.266 1515.2 293.627C1516.4 293.627 1517.89 293.867 1519.69 294.348C1521.61 294.709 1522.57 295.37 1522.57 296.332C1522.57 297.894 1521.43 298.676 1519.15 298.676Z" fill="#EFE8E3"/>
<path d="M1642.65 198.242C1640.85 195.838 1639.95 193.795 1639.95 192.112C1639.95 190.429 1640.85 188.506 1642.65 186.342C1644.57 184.058 1646.48 182.916 1648.4 182.916C1650.44 182.916 1652.36 183.998 1654.16 186.162C1656.07 188.205 1657.03 190.189 1657.03 192.112C1657.03 194.035 1655.96 196.139 1653.8 198.423C1651.76 200.587 1650.2 201.668 1649.12 201.668C1646.72 201.668 1644.57 200.526 1642.65 198.242ZM1623.58 329.869L1623.23 323.378C1623.23 319.892 1624.54 318.149 1627.18 318.149C1628.5 318.149 1630.36 319.411 1632.76 321.936C1635.15 324.58 1636.77 325.903 1637.61 325.903C1639.17 325.903 1640.25 323.859 1640.85 319.772C1641.45 315.805 1641.75 308.172 1641.75 296.873V242.058C1641.75 236.889 1640.19 233.644 1637.07 232.321C1635.51 231.72 1633.66 231.42 1631.5 231.42C1629.34 231.42 1628.26 230.819 1628.26 229.617C1628.26 228.895 1628.8 228.354 1629.88 227.994C1636.35 226.07 1641.63 224.147 1645.7 222.224C1649.9 220.301 1652.18 219.339 1652.54 219.339C1653.98 219.339 1654.7 220.721 1654.7 223.486V225.469L1654.34 233.944V292.365C1654.34 298.976 1653.74 305.227 1652.54 311.117C1651.34 317.007 1648.82 322.417 1644.99 327.345C1641.27 332.274 1636.77 334.738 1631.5 334.738C1626.22 334.738 1623.58 333.115 1623.58 329.869Z" fill="#EFE8E3"/>
<path d="M1714.63 302.102C1704.08 302.102 1695.08 298.856 1687.65 292.365C1680.34 285.874 1676.68 276.497 1676.68 264.236C1676.68 251.855 1680.04 241.517 1686.75 233.223C1693.59 224.928 1702.4 220.781 1713.19 220.781C1718.22 220.781 1722.78 221.683 1726.85 223.486C1731.05 225.289 1734.29 227.513 1736.57 230.158C1738.84 232.682 1740.76 235.387 1742.32 238.272C1744.96 243.2 1746.28 246.926 1746.28 249.451C1746.28 251.615 1743.82 252.696 1738.9 252.696H1692.69C1691.73 252.696 1691.13 252.817 1690.89 253.057C1690.77 253.177 1690.71 253.718 1690.71 254.68C1690.71 265.979 1693.71 274.875 1699.7 281.366C1705.81 287.857 1712.95 291.103 1721.1 291.103C1726.14 291.103 1731.23 289.78 1736.39 287.136C1741.66 284.371 1744.42 282.989 1744.66 282.989C1745.86 282.989 1746.46 283.53 1746.46 284.611C1746.46 286.054 1745.14 288.037 1742.5 290.562C1739.86 292.966 1737.34 294.949 1734.95 296.512C1729.19 300.238 1722.42 302.102 1714.63 302.102ZM1694.12 248.369L1725.78 247.287C1727.45 247.287 1728.47 247.167 1728.83 246.926C1729.31 246.566 1729.55 245.965 1729.55 245.123C1729.55 241.517 1727.87 237.31 1724.52 232.502C1721.16 227.693 1716.48 225.289 1710.49 225.289C1704.5 225.289 1699.88 227.693 1696.64 232.502C1693.41 237.19 1691.79 241.637 1691.79 245.845C1691.79 247.527 1692.57 248.369 1694.12 248.369Z" fill="#EFE8E3"/>
<path d="M1824.54 222.584L1830.11 222.404C1832.75 222.404 1834.07 223.246 1834.07 224.928C1834.07 225.77 1833.89 226.251 1833.53 226.371C1832.81 226.611 1832.09 226.732 1831.37 226.732C1827.77 226.972 1825.97 228.655 1825.97 231.78C1825.97 236.228 1829.51 246.265 1836.58 261.892C1837.54 263.816 1838.68 266.46 1840 269.826C1842.64 276.678 1844.32 280.104 1845.04 280.104C1846.24 280.104 1849.35 273.552 1854.39 260.45C1859.54 247.227 1862.12 239.053 1862.12 235.927C1862.12 232.802 1861.58 230.698 1860.5 229.617C1859.54 228.415 1858.46 227.753 1857.26 227.633C1853.91 227.152 1852.23 225.95 1852.23 224.027C1852.23 223.065 1853.49 222.584 1856.01 222.584H1876.69C1878.96 222.584 1880.4 222.705 1881 222.945C1881.6 223.185 1881.9 223.847 1881.9 224.928C1881.9 226.01 1880.88 226.972 1878.85 227.813C1876.93 228.535 1875.37 229.737 1874.17 231.42C1872.97 233.103 1871.89 234.966 1870.93 237.009C1869.97 238.933 1868.89 241.337 1867.7 244.222C1864.1 253.237 1859.6 263.455 1854.21 274.875C1848.81 286.294 1845.82 292.545 1845.22 293.627C1844.74 294.709 1844.08 295.971 1843.24 297.413C1842.04 299.818 1840.9 301.02 1839.82 301.02C1837.78 301.02 1833.95 293.266 1828.31 277.76C1822.68 262.133 1819.38 254.319 1818.42 254.319C1818.06 254.319 1814.22 262.012 1806.91 277.399C1799.6 292.785 1794.8 300.479 1792.52 300.479C1791.57 300.479 1790.67 299.637 1789.83 297.954C1788.99 296.271 1786.65 290.502 1782.81 280.645C1779.1 270.788 1776.04 262.914 1773.64 257.024C1771.24 251.013 1769.51 246.566 1768.43 243.681C1767.47 240.676 1766.75 238.572 1766.27 237.37C1764.59 234.004 1761.77 230.638 1757.82 227.273C1757.34 226.792 1756.8 226.431 1756.2 226.191C1755.6 225.83 1755.18 225.59 1754.94 225.469C1754.58 225.109 1754.4 224.508 1754.4 223.666C1754.4 222.344 1755.54 221.683 1757.82 221.683L1770.59 222.404L1779.4 222.224C1782.99 222.224 1785.27 222.344 1786.23 222.584C1787.31 222.705 1787.85 223.246 1787.85 224.207C1787.85 225.169 1787.19 225.83 1785.87 226.191C1781.91 227.032 1779.94 229.436 1779.94 233.403C1779.94 237.25 1783.29 246.746 1790.01 261.892C1790.85 263.575 1791.99 266.22 1793.42 269.826C1794.86 273.312 1796 275.896 1796.84 277.579C1797.68 279.142 1798.34 279.923 1798.82 279.923C1799.3 279.923 1800.8 277.519 1803.31 272.711C1805.95 267.782 1807.69 264.417 1808.53 262.613C1809.49 260.81 1810.21 259.488 1810.69 258.647C1811.17 257.685 1811.71 256.663 1812.31 255.581C1812.91 254.379 1813.33 253.538 1813.57 253.057C1813.81 252.456 1814.04 251.795 1814.28 251.074C1814.64 250.352 1814.88 249.872 1815 249.631C1815.12 249.27 1815.24 248.85 1815.36 248.369C1815.48 247.768 1815.54 247.287 1815.54 246.926V245.664C1815.54 244.823 1814.94 243.02 1813.75 240.255C1812.67 237.49 1811.47 235.206 1810.15 233.403C1808.95 231.48 1807.63 229.917 1806.19 228.715C1804.75 227.513 1803.67 226.792 1802.96 226.551C1801.04 225.83 1800.08 224.928 1800.08 223.847C1800.08 222.765 1800.98 222.224 1802.78 222.224L1824.54 222.584Z" fill="#EFE8E3"/>
<path d="M1925.02 302.102C1914.47 302.102 1905.48 298.856 1898.04 292.365C1890.73 285.874 1887.07 276.497 1887.07 264.236C1887.07 251.855 1890.43 241.517 1897.14 233.223C1903.98 224.928 1912.79 220.781 1923.58 220.781C1928.61 220.781 1933.17 221.683 1937.25 223.486C1941.44 225.289 1944.68 227.513 1946.96 230.158C1949.23 232.682 1951.15 235.387 1952.71 238.272C1955.35 243.2 1956.67 246.926 1956.67 249.451C1956.67 251.615 1954.21 252.696 1949.29 252.696H1903.08C1902.12 252.696 1901.52 252.817 1901.28 253.057C1901.16 253.177 1901.1 253.718 1901.1 254.68C1901.1 265.979 1904.1 274.875 1910.09 281.366C1916.21 287.857 1923.34 291.103 1931.49 291.103C1936.53 291.103 1941.62 289.78 1946.78 287.136C1952.05 284.371 1954.81 282.989 1955.05 282.989C1956.25 282.989 1956.85 283.53 1956.85 284.611C1956.85 286.054 1955.53 288.037 1952.89 290.562C1950.25 292.966 1947.74 294.949 1945.34 296.512C1939.58 300.238 1932.81 302.102 1925.02 302.102ZM1904.52 248.369L1936.17 247.287C1937.85 247.287 1938.86 247.167 1939.22 246.926C1939.7 246.566 1939.94 245.965 1939.94 245.123C1939.94 241.517 1938.27 237.31 1934.91 232.502C1931.55 227.693 1926.88 225.289 1920.88 225.289C1914.89 225.289 1910.27 227.693 1907.03 232.502C1903.8 237.19 1902.18 241.637 1902.18 245.845C1902.18 247.527 1902.96 248.369 1904.52 248.369Z" fill="#EFE8E3"/>
<path d="M1979.32 264.056L1980.04 187.424C1980.04 184.659 1979.56 182.195 1978.6 180.031C1977.76 177.747 1976.8 176.365 1975.72 175.884C1974.64 175.403 1972.24 175.163 1968.53 175.163C1967.21 175.163 1966.55 174.742 1966.55 173.901C1966.55 173.059 1966.61 172.458 1966.73 172.097C1966.97 171.737 1967.39 171.436 1967.99 171.196C1968.59 170.835 1969.31 170.535 1970.14 170.294C1973.62 169.573 1977.22 168.311 1980.93 166.508C1986.81 163.743 1990.65 162.361 1992.44 162.361C1993.88 162.361 1994.6 163.503 1994.6 165.787C1994.6 166.267 1994.48 167.65 1994.24 169.934C1993.52 177.026 1993.16 184.779 1993.16 193.194V203.291L1992.8 227.273V281.005C1992.8 283.53 1992.98 285.633 1993.34 287.316C1993.82 288.879 1995.2 290.441 1997.48 292.004C1999.88 293.447 2003.17 294.168 2007.37 294.168C2007.97 294.168 2008.51 294.468 2008.99 295.069C2009.47 295.67 2009.71 296.271 2009.71 296.873C2009.71 298.555 2007.85 299.397 2004.13 299.397L1985.97 298.135C1982.85 298.135 1979.86 298.375 1976.98 298.856C1974.22 299.337 1972.36 299.577 1971.4 299.577C1970.56 299.577 1969.84 299.337 1969.25 298.856C1968.77 298.495 1968.53 298.015 1968.53 297.413C1968.53 296.692 1968.77 296.151 1969.25 295.791C1969.84 295.31 1970.74 294.949 1971.94 294.709C1975.54 293.747 1977.7 292.305 1978.42 290.381C1979.14 288.338 1979.5 285.573 1979.5 282.087L1979.32 277.399V264.056Z" fill="#EFE8E3"/>
<path d="M2020.77 233.223L2018.8 233.042C2016.52 233.042 2015.38 232.081 2015.38 230.158C2015.38 228.835 2016.16 227.874 2017.72 227.273C2019.39 226.551 2022.39 225.53 2026.71 224.207C2031.14 222.765 2034.62 221.503 2037.14 220.421C2039.66 219.219 2041.15 218.618 2041.63 218.618C2043.19 218.618 2043.97 219.82 2043.97 222.224L2043.79 227.092C2043.79 231.42 2043.91 233.824 2044.15 234.305C2044.51 234.665 2044.81 234.846 2045.05 234.846C2045.41 234.846 2046.37 233.644 2047.93 231.239C2049.49 228.835 2051.7 226.431 2054.58 224.027C2057.46 221.503 2060.28 220.24 2063.03 220.24C2065.91 220.24 2068.85 221.262 2071.85 223.306C2074.84 225.229 2076.34 227.212 2076.34 229.256C2076.34 231.179 2075.86 232.982 2074.9 234.665C2073.22 237.55 2071.67 238.993 2070.23 238.993C2069.27 238.993 2067.53 238.271 2065.01 236.829C2062.61 235.387 2059.8 234.665 2056.56 234.665C2053.32 234.665 2050.27 235.988 2047.39 238.632C2044.63 241.277 2043.25 243.681 2043.25 245.845V264.597L2043.43 280.284L2043.61 283.53C2043.61 286.054 2044.45 288.218 2046.13 290.021C2047.81 291.824 2049.37 292.846 2050.81 293.086C2052.36 293.326 2053.68 293.507 2054.76 293.627C2055.84 293.747 2056.68 293.867 2057.28 293.988C2057.88 293.988 2058.54 294.108 2059.26 294.348C2060.58 294.589 2061.24 295.49 2061.24 297.053C2061.24 298.495 2060.52 299.217 2059.08 299.217L2043.79 298.315L2025.09 299.217C2022.93 299.217 2021.73 298.976 2021.49 298.495C2021.25 298.015 2021.13 297.534 2021.13 297.053C2021.13 295.49 2021.91 294.468 2023.47 293.988C2026.59 293.266 2028.45 291.764 2029.05 289.48C2029.76 287.076 2030.12 282.027 2030.12 274.334L2029.94 245.304L2029.76 239.894C2029.76 238.572 2029.59 237.49 2029.23 236.649C2028.27 234.365 2025.45 233.223 2020.77 233.223Z" fill="#EFE8E3"/>
<path d="M2115.55 332.935L2107.81 333.115C2105.53 333.115 2104.4 332.334 2104.4 330.771C2104.4 330.41 2105.71 328.547 2108.35 325.181C2111.11 321.816 2113.87 317.668 2116.62 312.74C2119.38 307.811 2120.76 303.424 2120.76 299.577C2120.76 295.851 2117.34 286.535 2110.51 271.629C2103.68 256.723 2097.74 244.522 2092.71 235.026C2091.39 232.622 2090.01 230.759 2088.57 229.436C2087.25 228.114 2086.17 227.393 2085.33 227.273C2083.42 227.032 2082.46 226.131 2082.46 224.568C2082.46 223.005 2083.66 222.224 2086.05 222.224L2105.3 222.584L2115.55 222.224C2116.38 222.224 2117.1 222.464 2117.7 222.945C2118.42 223.306 2118.78 223.726 2118.78 224.207C2118.78 226.371 2117.34 227.453 2114.47 227.453H2111.77C2109.85 227.453 2108.89 228.955 2108.89 231.961C2108.89 235.567 2112.07 244.222 2118.42 257.925C2119.38 259.969 2120.82 263.215 2122.74 267.662C2126.34 275.836 2128.49 279.923 2129.21 279.923C2129.93 279.923 2132.69 273.011 2137.49 259.188C2142.4 245.364 2144.86 237.13 2144.86 234.485C2144.86 231.84 2144.26 229.977 2143.06 228.895C2141.98 227.813 2140.72 227.273 2139.28 227.273C2135.57 227.513 2133.71 226.491 2133.71 224.207C2133.71 222.765 2134.85 222.044 2137.13 222.044L2150.07 222.224L2161.22 222.044C2163.74 222.044 2165 222.825 2165 224.388C2165 225.59 2163.92 226.491 2161.76 227.092C2159.72 227.573 2158.35 228.294 2157.63 229.256C2155.71 232.021 2152.47 239.594 2147.92 251.975L2131.91 294.709C2130.59 298.195 2129.27 301.741 2127.95 305.347C2126.64 309.074 2125.56 312.079 2124.72 314.363C2123.88 316.647 2123.04 318.931 2122.2 321.215C2121.36 323.498 2120.7 325.241 2120.22 326.444C2119.74 327.766 2119.26 328.968 2118.78 330.05C2117.82 331.973 2116.92 332.935 2116.09 332.935H2115.55Z" fill="#EFE8E3"/>
</svg>
